<?xml version="1.0" encoding="utf-8"?>
<!-- Generator: Adobe Illustrator 28.0.0, SVG Export Plug-In . SVG Version: 6.00 Build 0)  -->
<svg version="1.1" id="Capa_1" xmlns="http://www.w3.org/2000/svg" xmlns:xlink="http://www.w3.org/1999/xlink" x="0px" y="0px"
	 viewBox="0 0 1254 1254" style="enable-background:new 0 0 1254 1254;" xml:space="preserve">
<style type="text/css">
	.st0{fill:#FFFFFF;}
	.st1{fill:#F7F7F3;}
	.st2{fill:#3E5B5D;}
	.st3{fill:#191919;}
	.st4{fill:#C2B2DB;}
	.st5{fill:#C4B9D2;}
	.st6{fill:#F6DCBC;}
	.st7{fill:#F7F6F6;}
</style>
<path class="st0" d="M627,1236.4L627,1236.4c-336.6,0-609.4-272.9-609.4-609.4v0C17.6,290.4,290.4,17.6,627,17.6h0
	c336.6,0,609.4,272.9,609.4,609.4v0C1236.4,963.6,963.6,1236.4,627,1236.4z"/>
<path class="st3" d="M374.4,339.6c0.3-0.5,0.9-3,1.8-7.5c2.3-11.4,7.5-22.2,14.6-31.5c3.9-5.1,7.4-8.9,10.4-11.5
	c12.1-10.3,25.9-16.9,42.2-19.4c9.3-1.4,11.2,4.6,10.3,12c-0.7,6.5-1.8,12.2-3.3,17.1c-0.1,0.3,0.1,0.5,0.3,0.6c0.1,0,0.2,0,0.3,0
	c15-6.5,30.5-11.4,46.4-14.7c4-0.8,10.9-2,20.6-3.5c0.2,0,0.4-0.2,0.3-0.5c0-0.1-0.1-0.2-0.1-0.2c-4.9-4.1-9.6-8.7-13.2-13.5
	c-4.5-6.1-3-11.2,3.2-14.4c18.4-9.7,37.2-13.1,56.5-10.2c5.5,0.8,11.9,2.9,19.4,6.3c5.9,2.7,11.5,6.5,16.9,11.3
	c8.4,7.5,14.8,14.9,19.4,24.5c0.2,0.3,0.5,0.6,0.8,0.7l1.2,0.4c0.2,0.1,0.5-0.1,0.5-0.3c0-0.1,0-0.3-0.1-0.4
	c-6.2-7.7-10.9-16.1-14.1-25.1c-3.1-8.7-6-16.6-5.6-25c0.3-5.6,5.2-7.3,10.6-6.7c34.3,3.5,62.2,23.6,73.6,56.7
	c3,8.7,4.8,17.1,5.5,25c0.1,0.8,0.6,1.6,1.3,1.9l22.6,11.6c0.1,0.1,0.2,0,0.3-0.1c0-0.1,0-0.1,0-0.2c-7-14.5-10.2-31.9-8.4-48.3
	c0.4-3.8,1.3-6.2,2.5-7.2c3.1-2.5,5.9-2.5,9.9-1.1c21.2,7.8,39.3,22.8,49.6,42.9c8.4,16.4,10,35.7,7.5,53.7
	c-0.1,0.9,0.2,1.9,0.9,2.5l8.9,7.7c0.2,0.2,0.6,0.2,0.8-0.1c0.1-0.1,0.2-0.3,0.1-0.4c-1.3-13,0.6-25.7,5.8-37.9
	c1.9-4.4,4-7.8,6.3-10.4c2.5-2.7,5.7-3.2,9.5-1.5c0.3,0.2,0.6,0.4,0.9,0.6c3.7,3.3,7.5,7.7,11.4,13.2c14.4,20.2,18.4,42.5,11.9,66.7
	c-0.1,0.3,0.1,0.6,0.4,0.7c0.1,0,0.2,0,0.2,0c11.3-1.9,22.2-1.5,32.8,1.3c8.8,2.3,16.8,8.1,21.6,15c2,2.9,1.7,8.4-2.6,9.2
	c-3,0.6-4.3,0-6.5-2.3c-7.6-7.9-20.7-11.1-31.1-10.9c-11.3,0.1-23.9,3.8-35.3,7c-8.3,2.3-14.4,3.7-18.3,4.2
	c-15.5,1.8-31.3,0.4-45.5-6c-12-5.3-22.1-13.2-30.4-23.5c-2.1-2.6-5.3-6.7-5.3-10.2c0.1-6.7,4.2-7.7,10.2-9.6
	c14.3-4.6,29.2-5.4,44.5-2.6c0.1,0,0.3-0.1,0.3-0.2c0-0.1,0-0.2-0.1-0.3c-8.3-7.2-17.2-13.6-26.7-19.4c-0.3-0.2-0.7-0.2-1,0
	c-23.9,15.3-52.5,19.4-79.1,9.6c-11.4-4.2-21.6-10.9-30.6-20c-0.3-0.3-0.5-0.7-0.7-1c-2.3-5.2-1.2-9.2,3.3-12
	c12.7-8,26.5-12.4,41.6-13.2c0.2,0,0.4-0.2,0.3-0.4c0-0.1-0.1-0.3-0.2-0.3c-11.4-5-22.9-9.3-34.5-12.8c-0.3-0.1-0.7,0-0.9,0.3
	c-20.7,25.1-47.6,35.4-80.4,31.1c-7.4-1-16.3-4-26.5-9c-0.4-0.2-0.7-0.4-1-0.8c-2.9-3.3-3.2-6.8-0.8-10.3
	c5.3-7.7,12.2-14.3,20.9-19.6c0.2-0.1,0.2-0.4,0.1-0.6c-0.1-0.1-0.1-0.1-0.2-0.2l-15.1-4.7c-0.2-0.1-0.4-0.1-0.6-0.1
	c-13.2,0.7-25.9,2.4-38.1,5c-18.1,3.9-37.3,10.8-57.7,20.7c-0.6,0.3-1.1,0.7-1.5,1.1c-1.5,1.7-2.6,4-4.1,5.7
	c-5.2,5.9-11.2,11.1-18.1,15.4c-0.3,0.2-0.4,0.6-0.2,0.9c0.1,0.2,0.3,0.3,0.5,0.3c4.7,0.8,10.4,1.7,11.2,7.2c1,6.7-7,16.5-11.8,21.8
	c-13.8,15.4-31.1,23.5-51.9,24.5c-5.3,0.2-10.7,0.2-16-0.3c-0.6,0-1.1,0.2-1.5,0.7c-5.2,7-11,15.4-17.4,25.1
	c-3.2,4.9-5.6,8.7-7,11.3c-2.9,5.4-4.9,9.4-6.1,11.8c-0.6,1.3-1.8,4.7-3.6,10.3c-5.9,18.7-2.7,37.5,9.2,53
	c2.4,3.1,6.5,8.1,12.4,14.9c9.4,11,15.9,19.7,20.3,30.5c0.8,1.9,1.7,5.8,2.9,11.9c1.6,8.6,0.7,15.8-1,23.6
	c-0.6,2.9-2.4,7.3-5.4,13.3c-2.7,5.4-4.7,9.7-6,13c-4.2,10.5-3.5,22.1,3.3,31.5c3.2,4.5,6,7.5,8.2,9.2c10.3,7.5,19.5,14.5,26.6,25.2
	c4,6,5.4,12.3,6.7,19.7c1.5,8.4-1.5,19.1-4.7,26.4c-3.6,8.2-10.8,16.6-14.9,23.8c-3.6,6.5-5.3,13.5-5.2,21.2c0.2,8,5.8,16,12,20.8
	c2.9,2.3,6.6,4.5,11,6.7c7.5,3.8,14.7,11.8,17.5,20.3c1,3.1,1.3,7,0.8,11.5c-1.2,10.9-5.9,19.6-14.1,26.1c-2.2,1.8-6.3,1-6.6-2.4
	c-0.1-1.5,0.1-2.6,0.5-3.3c9.2-12.7,14.3-30-2.7-39.6c-8.1-4.5-12.7-6.4-18.7-11.2c-9-7.2-14.1-16.4-15.1-27.7
	c-1.1-12.7,3.5-26.1,10.6-36.7c4-5.9,6.5-9.7,7.4-11.3c2.1-3.6,3.8-8.2,4.9-13.8c2.4-11.6-2.6-22.9-11.2-30.5c-3.4-3-6.4-5.3-9-7
	c-11.7-7.6-22.1-18.9-25.5-33.2c-4.4-18.5,1.6-33.3,10.2-49.2c0.9-1.6,1.9-4.9,3.1-9.8c2.3-9.5,0.1-19.4-4.4-27.9
	c-4.7-9.1-11.3-16.2-20.2-26.1c-4.1-4.5-8.1-9.7-12-15.5c-5.9-8.7-9.6-18.7-11.2-30.1c-0.3-2-0.4-5.7-0.2-11.3
	c0.3-11.9,4.2-24.2,9.3-34.7c0.3-0.6,0.3-1.4-0.1-2c-3.7-6.4-6.9-12.3-9-19c-6.5-20.8-4.7-41,5.3-60.7c0.2-0.5,0.3-1,0.2-1.5
	c-2.9-15-0.5-31.5,5-46.3c6.8-18.4,17.2-34.8,31.2-49c19.8-20.2,43.6-33,71.4-38.5c4.2-0.8,8.4-1.3,12.6-1.4c0.5,0,1.1-0.3,1.4-0.7
	c20.8-27.2,50.3-46.2,81.3-58.4c34-13.3,68.9-18.2,104.7-14.5c6.3,0.6,12.9,1.8,19.9,3.4c8.8,2,15.2,3.8,19.3,5.4
	c12.6,4.7,20.6,8.1,24.1,10.1c7.2,4.1,12.9,7.6,17.3,10.5c0.4,0.3,0.9,0.3,1.3,0.2c7.7-2.1,16.9-3.5,27.5-4.3
	c14.2-1,27.9,0.5,41.1,4.6c22.1,6.8,40.2,19.1,54.4,36.9c4.4,5.5,8.5,12.7,12.3,21.6c0.2,0.4,0.4,0.7,0.8,0.8
	c1.7,0.9,3.8,1.1,5.3,1.6c23.2,8.1,41.9,21.3,56.1,39.7c9.6,12.4,16.2,25.8,19.9,40.1c3.7,14.5,4.2,29.4,1.7,44.7
	c-0.1,0.5,0.1,0.9,0.5,1.2c5.7,3.9,11.2,8.7,16.4,14.5c24.7,26.7,28.6,69.9,7,99.6c-0.3,0.4-0.3,0.9,0,1.3
	c6,7.7,11.1,15.6,15.2,23.9c7.9,15.8,11.4,32.7,10.7,50.8c-0.3,7-1,12.7-2.1,17.4c-2.7,11.1-6.6,21-11.6,29.5
	c-9.5,16.1-21.7,28.4-37.1,39.1c-0.5,0.4-0.7,1.1-0.3,1.7c0,0,0,0,0,0.1c5,6.5,9,14,11.8,22.5c2,6,2.6,11.6,3,17.4
	c0.8,10.9-1.6,23.1-7.4,33c-2.7,4.7-4.5,7.5-5.3,8.6c-6.7,8.9-14.4,17.8-5.6,28.9c2,2.5,5.3,5,8.8,7.3
	c16.5,11.1,28.7,25.6,30.3,46.2c1.2,15.5-4,28.5-15.5,39c-2.9,2.7-5.7,4.4-8.1,5.3c-5.8,1.9-9.4-2.8-6.8-8.2
	c0.1-0.3,0.3-0.5,0.5-0.6c18.8-15,20.2-40.9,2.9-57.8c-6.3-6.2-9.3-8.1-18.1-14.2c-3.9-2.7-7.3-6.5-10.5-11.2
	c-2.8-4.3-4.2-9.6-4.2-15.9c0-11.4,5.8-19.4,12.2-28.2c3.1-4.3,5.2-7.5,6.1-9.5c4-9.2,5.3-17.6,3.4-27.6c-2.4-12.9-8.9-23.1-18-33
	c-0.3-0.3-0.5-0.7-0.7-1.1c-1.6-4-1-7.4,1.9-10.1c0.2-0.2,0.5-0.4,0.8-0.6c13.6-7.4,25.2-17.3,34.7-29.7
	c11.9-15.6,18.1-32.9,18.5-51.9c0.3-15.7-4-30.4-11.1-44.1c-3.7-7.1-8.9-14.7-15.7-22.8c-1.2-1.5-1.5-3.7-0.9-6.6
	c0.2-0.9,1.4-2.8,3.6-5.9c1.1-1.5,2.9-4.6,5.4-9.4c5-9.6,6.8-20.8,6.6-31.2c-0.2-6.8-1.7-13.7-4.6-20.7c-6.3-15.1-16.6-26.7-31-34.8
	c-4.1-2.3-4-6.9-3-11.6c4.1-19,1.9-37.6-6.5-55.9c-2.9-6.3-5.1-10.5-6.5-12.4c-6.2-8.5-13-16.8-20.8-23
	c-10.5-8.3-22.2-14.9-34.5-18.2c-4.9-1.3-7.9-1.6-10.2-4.3c-0.5-0.6-1-1.6-1.6-3.2c-7.4-18.6-19.3-31.8-35.9-42.6
	c-3.4-2.2-8.7-4.8-15.9-7.8c-5.2-2.1-10.8-3.8-17.1-4.9c-17.3-3.1-34.8-2-52.6,3.2c-1.7,0.5-3.6,0.4-5.7-0.3
	c-0.3-0.1-0.6-0.3-0.9-0.4c-5.6-3.9-8.7-6.1-9.3-6.4c-20.8-11.6-41.3-18.9-61.8-21.9c-50.3-7.4-103.4,5-145,34.4
	c-8.4,6-16.3,13.1-23.2,20c-3.5,3.5-7.8,8.7-12.9,15.5c-1.4,1.9-4.4,2.6-7.1,2.7c-7.3,0.4-11.6,0.7-12.8,1
	c-26.7,5.2-49.1,18.1-67.1,38.7c-10,11.4-17.7,24.3-23.2,38.7c-3.2,8.6-5.3,18.9-5.7,26.6c-0.1,1.4,0.4,7.1,1.5,17.1
	c0.1,0.5,0.3,1,0.6,1.4l3.5,4.2c0.2,0.2,0.5,0.3,0.7,0.1c0.1-0.1,0.2-0.2,0.2-0.4c0.4-4.5,0.7-7.6,1.2-9.4c5-20.8,16-37.5,33.1-50.3
	c4.8-3.6,11.3-3,13.6,3.2c3.7,10,5.3,20.2,4.8,30.5c-0.2,3.5-0.2,5.3-0.2,5.5c0,0.1,0.2,0.2,0.3,0.2
	C374.3,339.7,374.4,339.7,374.4,339.6z M678.9,305.1c0.2,0.1,0.4-0.1,0.5-0.3c0,0,0-0.1,0-0.2c-2.3-17.5-10.7-34.8-24.1-46.3
	c-4-3.5-7.5-6-10.6-7.5c-9.4-4.9-18-8.9-27.6-10.1c-0.5-0.1-1,0.3-1.1,0.9c0,0.1,0,0.1,0,0.2l0.1,2.1c0,0.1,0,0.2,0.1,0.4
	c2.5,9,5.8,16.8,9.8,23.4c8.8,14.7,21.5,25.4,37.9,32.3C668.5,301.8,673.5,303.5,678.9,305.1z M605.3,283.3
	c-10.2-16.2-31.8-29.6-51.2-29.1c-9.4,0.2-15,0.5-16.8,0.9c-6.1,1.2-12.5,3.4-19.1,6.4c-0.4,0.2-0.6,0.6-0.4,1
	c0,0.1,0.1,0.2,0.2,0.2c10.3,10.7,22.7,17.8,37.2,21.2c3.4,0.8,9.3,1.5,17.8,2.1c4.6,0.3,9.8,0.1,15.6-0.7c6-0.8,11.4-1.2,16.3-1.3
	c0.3,0,0.5-0.2,0.5-0.5C605.3,283.5,605.3,283.4,605.3,283.3z M767,355.6c0.9-14.4-1.7-28-7.8-40.8c-7.4-15.3-22.3-27.7-37.9-34.9
	c-0.4-0.2-0.8,0-1,0.4c0,0.1-0.1,0.2-0.1,0.3c-0.3,6.6,0.2,12.8,1.5,18.8c3.3,14.4,9.8,26.9,19.6,37.5c6.8,7.4,16.3,13.4,24.8,19.1
	c0.2,0.2,0.5,0.1,0.7-0.1C767,355.8,767,355.7,767,355.6z M386.8,340.5c0.1,0.1,0.3,0.2,0.4,0.1c6.3-1.1,11.7-3.9,17.8-7.1
	c4.1-2.2,7.2-4,9.3-5.6c14.6-10.9,23.5-25.6,26.7-44.1c0-0.1-0.1-0.3-0.3-0.5c-0.2-0.2-0.4-0.3-0.5-0.3c-18.3,4.2-32.5,14-42.5,29.2
	c-1.5,2.2-3.2,5.5-5.1,9.7c-2.9,6.3-5.3,11.9-6.1,18.2C386.6,340.2,386.6,340.3,386.8,340.5z M627.9,300.8c-8.2-2-17.1-4.1-26.6-4.1
	c-21.3-0.1-40.5,7.1-55.1,22.5c-0.3,0.4-0.3,0.9,0,1.3c0.1,0.1,0.2,0.2,0.3,0.2c7.8,2.9,16.1,4.6,24.7,4.9
	c22.6,1,41.6-6.8,57.2-23.2c0.4-0.4,0.3-1,0-1.3C628.2,301,628,300.9,627.9,300.8z M335.1,384.8c0,0.2,0.3,0.4,0.5,0.3
	c0.1,0,0.2-0.1,0.2-0.1c2.4-3,6.5-8.1,12.4-15.4c4.2-5.2,7-9.7,8.6-13.6c2.7-6.7,4.3-13,4.8-19c0.7-8.1,0.2-15.7-1.3-22.8
	c-0.1-0.5-0.6-0.8-1-0.7c-0.1,0-0.3,0.1-0.4,0.2c-11.5,10-21.3,24.5-24.3,39.7c-1.2,6.2-1.8,9.8-1.8,11
	C332.8,370.3,333.6,377.2,335.1,384.8z M645.6,341.1c0,0.3,0.1,0.7,0.5,0.9c12.6,9.4,26.2,14.8,40.8,16c14.6,1.3,28.9-1.7,42.9-8.8
	c0.4-0.2,0.7-0.5,0.7-0.8c0-0.3-0.1-0.7-0.5-0.9c-12.6-9.4-26.2-14.8-40.8-16c-14.6-1.3-28.9,1.7-42.9,8.8
	C645.9,340.5,645.6,340.7,645.6,341.1z M807.9,337.7c-0.2-0.3-0.6-0.3-0.9,0c-0.1,0.1-0.1,0.1-0.1,0.2c-7.3,16.3-7.9,32.9-1.8,49.8
	c1.7,4.6,3.3,7.9,4.8,9.9c2,2.6,5.1,6.3,9.4,11.2c0.2,0.3,0.7,0.3,0.9,0.1c0.1-0.1,0.1-0.2,0.2-0.2c5.1-13,7.2-28,3.5-41.3
	C821.1,357.1,815.5,345.4,807.9,337.7z M373.3,343.2c-0.4,1.4-0.5,2.3-0.5,2.5c0,0.2,0.2,0.4,0.4,0.3c0.2,0,0.3-0.2,0.3-0.3
	c0.3-1.5,0.4-2.3,0.2-2.6c-0.1-0.1-0.2-0.2-0.4-0.1C373.4,343.1,373.3,343.2,373.3,343.2z M380.7,357.7
	c-9.9,4.8-18.9,13.3-24.9,22.3c-0.6,0.9-0.9,1.6-0.7,1.9c0.1,0.3,0.8,0.5,1.9,0.6c10.8,0.8,23-1.2,32.9-6
	c9.9-4.8,18.9-13.3,24.9-22.3c0.6-0.9,0.9-1.6,0.7-1.9c-0.1-0.3-0.8-0.5-1.9-0.6C402.7,350.9,390.5,352.9,380.7,357.7z M311.5,420.5
	c0.1,0,0.3-0.1,0.5-0.2c0.2-0.2,0.3-0.3,0.4-0.3c2.9-5,6-9.8,9.3-14.3c0.2-0.3,0.4-0.7,0.4-1.1c0.3-2.7,0.2-5.9-0.3-9.5
	c-1.5-11.3-5.9-21.3-13-29.8c-0.2-0.3-0.6-0.3-0.9-0.1c-0.1,0.1-0.1,0.1-0.2,0.2c-3.6,8.3-4.1,14.6-4.6,23.9
	c-0.5,10.2,3.1,21.4,7.6,30.7C310.8,420.3,311.1,420.4,311.5,420.5z M764.1,413.4c13.1,3.9,26.9,3.9,41.3-0.1c0.4-0.1,0.7-0.6,0.6-1
	c0-0.1-0.1-0.2-0.2-0.3c-8.8-10.8-21.1-19.1-34.4-23.1c-13.3-4-28.1-3.7-41.4,0.4c-0.4,0.1-0.7,0.6-0.5,1c0,0.1,0.1,0.2,0.2,0.3
	C739.5,401.9,751,409.5,764.1,413.4z"/>
<path class="st4" d="M678.9,305.1c-5.5-1.6-10.5-3.3-15-5.2c-16.5-6.8-29.1-17.6-37.9-32.3c-4-6.6-7.3-14.4-9.8-23.4
	c0-0.1-0.1-0.3-0.1-0.4l-0.1-2.1c0-0.6,0.4-1,0.9-1.1c0.1,0,0.1,0,0.2,0c9.7,1.2,18.2,5.2,27.6,10.1c3,1.6,6.5,4.1,10.6,7.5
	c13.4,11.5,21.7,28.8,24.1,46.3c0,0.2-0.1,0.4-0.3,0.4C679,305.1,679,305.1,678.9,305.1z"/>
<path class="st4" d="M605.3,283.3c0.2,0.2,0.1,0.6-0.2,0.7c-0.1,0-0.2,0.1-0.3,0.1c-4.9,0.1-10.3,0.5-16.3,1.3
	c-5.9,0.8-11.1,1-15.6,0.7c-8.5-0.6-14.4-1.3-17.8-2.1c-14.6-3.5-27-10.5-37.2-21.2c-0.3-0.3-0.3-0.8,0-1.1c0.1-0.1,0.1-0.1,0.2-0.2
	c6.7-3.1,13.1-5.2,19.1-6.4c1.8-0.4,7.4-0.6,16.8-0.9C573.5,253.7,595,267.1,605.3,283.3z"/>
<path class="st4" d="M767,355.6c0,0.3-0.3,0.5-0.5,0.5c-0.1,0-0.2,0-0.2-0.1c-8.5-5.7-18-11.7-24.8-19.1
	c-9.8-10.6-16.3-23.1-19.6-37.5c-1.4-5.9-1.9-12.2-1.5-18.8c0-0.4,0.4-0.7,0.8-0.7c0.1,0,0.2,0,0.3,0.1
	c15.6,7.2,30.5,19.6,37.9,34.9C765.4,327.6,768,341.1,767,355.6z"/>
<path class="st4" d="M440.7,283.2c0.2,0.2,0.3,0.4,0.3,0.5c-3.1,18.5-12,33.2-26.7,44.1c-2.2,1.6-5.3,3.5-9.3,5.6
	c-6.1,3.2-11.6,6-17.8,7.1c-0.1,0-0.3,0-0.4-0.1c-0.1-0.1-0.2-0.2-0.2-0.4c0.7-6.3,3.2-11.9,6.1-18.2c1.9-4.2,3.6-7.4,5.1-9.7
	c10-15.3,24.2-25,42.5-29.2C440.4,282.9,440.5,283,440.7,283.2z"/>
<path class="st4" d="M627.9,300.8c0.5,0.1,0.8,0.6,0.7,1.1c0,0.2-0.1,0.3-0.2,0.4c-15.5,16.5-34.6,24.2-57.2,23.2
	c-8.7-0.4-16.9-2-24.7-4.9c-0.5-0.2-0.7-0.7-0.5-1.1c0-0.1,0.1-0.2,0.2-0.3c14.7-15.4,33.9-22.6,55.1-22.5
	C610.8,296.7,619.6,298.9,627.9,300.8z"/>
<path class="st4" d="M335.1,384.8c-1.5-7.6-2.3-14.5-2.3-20.6c0-1.2,0.6-4.8,1.8-11c2.9-15.2,12.8-29.6,24.3-39.7
	c0.4-0.3,0.9-0.3,1.2,0.1c0.1,0.1,0.2,0.2,0.2,0.4c1.6,7.2,2,14.8,1.3,22.8c-0.5,6-2.1,12.3-4.8,19c-1.6,3.9-4.5,8.5-8.6,13.6
	c-5.9,7.3-10,12.5-12.4,15.4c-0.1,0.2-0.4,0.2-0.6,0.1C335.2,385,335.1,384.9,335.1,384.8z"/>
<path class="st4" d="M689.2,331.4c14.6,1.3,28.2,6.6,40.8,16c0.4,0.3,0.6,0.6,0.5,0.9c0,0.3-0.3,0.6-0.7,0.8
	c-14,7.1-28.3,10.1-42.9,8.8c-14.6-1.3-28.2-6.6-40.8-16c-0.4-0.3-0.6-0.6-0.5-0.9c0-0.3,0.3-0.6,0.7-0.8
	C660.3,333.1,674.6,330.2,689.2,331.4z"/>
<path class="st4" d="M807.9,337.7c7.6,7.7,13.2,19.4,16,29.5c3.7,13.3,1.6,28.4-3.5,41.3c-0.1,0.3-0.5,0.5-0.8,0.4
	c-0.1,0-0.2-0.1-0.3-0.2c-4.3-4.9-7.4-8.6-9.4-11.2c-1.5-2-3.1-5.3-4.8-9.9c-6.1-16.9-5.5-33.5,1.8-49.8c0.1-0.3,0.5-0.5,0.8-0.3
	C807.8,337.6,807.8,337.6,807.9,337.7z"/>
<path class="st3" d="M822,947.8c-6-1.7-11.3-3.8-16-6.3c-7.7-4.3-13.5-10.2-17.4-17.7l-1.9-5.4c-2.2-7.9-2.2-15.6,0-22.9
	c0.1-0.2-0.1-0.5-0.3-0.5c-0.1,0-0.2,0-0.3,0c-3.5,1.2-6.5,2.4-9,3.6c-25.1,11.2-50.7,24.4-76.7,39.8
	c-27.4,16.2-55.4,33.5-83.9,52.1c-12.8,8.3-28.1,17.9-41.8,26.5c-26.9,17-47.5,29.6-62,38c-18.4,10.6-31.7,17.7-40,21.5
	c-7.3,3.3-17.6,8.3-25.4,11.1c-6.2,2.2-41.3,13.5-44.1,5.7c-1.1-3.1,1.7-4.6,4.5-5.1c3.1-0.6,6.6-1.4,10.3-2.6
	c13.8-4.3,27.2-9.9,40.1-16.7l21.5-11.5l31.3-18.4l19.5-11.9c1.9-1.2,3.8-2.4,5.9-3.8c58-37,87.1-55.5,87.2-55.6
	c15.8-10.1,30.2-19,43.1-26.8c19.2-11.7,38.8-22.8,58.8-33.4c23.1-12.3,46.9-22.7,71.5-31.3c0.7-0.3,1.4-0.7,1.9-1.3
	c6.8-7.7,15-13.8,24.5-18.4c0.2-0.1,0.3-0.4,0.2-0.6c0-0.1-0.1-0.1-0.1-0.2c-5.7-5.4-10.8-11.6-15.4-18.4c-5.6-8.3-9.4-14.6-11.6-19
	c-8.6-17.3-14.6-35.7-18.2-55.3c-2-11-3.4-20.1-4-27.3c0-0.5-0.3-0.9-0.6-1.2c-13.5-11.5-16.8-31.3-12.7-47.8
	c2.7-10.8,7.7-20.3,14.9-28.4c0.3-0.4,0.5-0.9,0.4-1.4c-0.2-1.3-0.4-2.2,0-3.5c1.5-5.6,2.3-12,2.5-19.2c0-0.3-0.1-0.7-0.3-0.9
	c-3.3-4.1-4.9-8.4-4.8-12.9c0.2-8.9,3.8-14.8,10.8-17.9c11-4.7,22.9,0.8,26,12.4c0.1,0.2,0.3,0.4,0.6,0.3c0,0,0.1,0,0.1-0.1
	c3.9-2.4,7.5-5.6,10.8-9.5c13.4-16,20.4-34.7,20.8-55.9c0.2-10.1-1.7-19.2-9.8-25.8c-9.5-7.8-25.3-3.6-35.6,1.3
	c-13.7,6.6-29.9,10.9-44.7,8.8c-0.3,0-0.5,0.2-0.6,0.4c0,0.1,0,0.2,0.1,0.3c11.1,18.7,10.8,41.9-1.2,59.9c-0.4,0.5-2.4,3.5-6.1,8.9
	c-3,4.4-4.4,9.7-4.1,16.1c0.3,5.9,3.4,10.6,8.5,13.7c1.7,1,2.7,1.7,3.1,2.2c1.6,1.8,1.9,5-0.6,6.3c-3.1,1.7-6.9,0.3-9.8-1.3
	c-9-5.2-13.6-13-13.8-23.5c-0.1-5.6,1.9-13.6,4.6-18.4c4-7.1,7.9-12.1,10.4-18.6c3.7-10,3.8-19.8,0.4-29.3
	c-3.1-8.6-7.8-16.1-14.3-22.5c-0.3-0.3-0.8-0.6-1.2-0.8c-22.8-11.3-35.4-29.4-37.8-54.4c0-0.5-0.3-1-0.7-1.2c-1.3-0.9-3.8-2.6-7.3-5
	c-5.6-3.8-10.3-8.2-15.1-13.8c-8.3-9.7-14.3-16.5-17.9-20.6c-7-7.9-18.8-15-28.7-18.3c-10.3-3.4-24.2-5.5-35.8-5.6
	c-19.8-0.1-31.5-0.2-46.9-1.9c-7.8-0.9-14.1-2-18.8-3.3c-9.5-2.7-19.3-5.8-28.3-11.1c-5.4-3.2-8.9-5.3-10.3-6.3
	c-5.7-4.2-11.4-9.7-17.1-16.6c-0.1-0.2-0.4-0.2-0.6-0.1c-0.1,0-0.1,0.1-0.1,0.2c-3.8,9.5-8.2,17.6-13.3,24.2
	c-6.2,8.1-13.8,15.7-22.8,22.7c-9.8,7.6-27.1,16.4-35,21.1c-2,1.2-3.5,2.3-4.5,3.3c-0.3,0.3-0.5,0.6-0.6,1c-0.2,0.5-0.4,1.6-0.7,3.4
	c-4.5,24.5-4.8,49.2-1,74.1c0,0.3,0.3,0.4,0.5,0.4c0.1,0,0.2-0.1,0.3-0.2c1.4-1.9,3.3-3.6,5.5-5.3c11.9-8.7,24.3-13.1,37.3-13.2
	c10.4-0.1,19.5,0.6,28.7,5.2c4.1,2.1,6.1,8.2,3.2,12c-2.1,2.7-5,3.7-8.8,3c-7.8-1.4-15.3-1.8-22.5-1.4c-16.5,1-29,6.8-39.5,19
	c-0.3,0.4-0.5,0.8-0.4,1.3c0.1,1.8,0.4,3.5,1,5.3c1.9,6,5.6,17.2,11.1,33.5c1.3,3.9,2.2,6.9,2.6,9.2c1.8,9.7,4.9,26.7,9.2,51.1
	c1.6,8.8,5.9,19.5,7.7,25.1c2.1,6.4,4.3,12,6.7,16.7c6.1,11.9,11,20.7,14.9,26.6c16.4,24.8,35.6,47.8,57.7,69
	c6.7,6.5,12.6,11.4,17.5,14.7c5.1,3.4,11.8,6.4,20.1,8.9c1.9,0.6,4.1,1,6.6,1.2c21.3,1.8,43.7-5.6,62.8-14.7
	c11.5-5.4,22.2-11.3,32.2-17.6c1-0.7,2.4-0.9,4.2-0.9c3.2-0.6,5.3,0.7,6.2,3.8c0.9,2.8,0.2,5.4-2,8c-2,2.3-5.6,5.3-10.7,8.8
	c-6,4.1-10.7,7.1-14,8.8c-11.6,6.1-23.4,11-35.4,14.6c-0.5,0.2-0.8,0.7-0.7,1.2c3.5,17.3,5.8,34.6,6.9,51.7
	c1.5,15.6,1.1,31-1.4,46.1c-1,5.9-2.5,11.7-4.8,17.4c-0.7,1.8-1.5,3.1-2.5,3.8c-2.4,1.8-6.2,2.2-8.2-0.2c-2.4-2.8-1.8-5.8-1.4-9.5
	c0-0.3-0.2-0.5-0.4-0.6c-0.1,0-0.1,0-0.2,0c-1.7,0.5-4.2,1.6-7.7,3.1c-5.1,2.3-10.1,4.5-14.9,6.6c-15,6.6-29.4,13.9-43,22.1
	l-8.3,5.1c-2.1,1-4.1,2.1-5.9,3.3c-19.9,13.3-37.5,27.4-52.8,42.2c-15.1,14.6-29.2,30.6-42.4,47.9c-11.2,14.7-19.8,26.7-25.8,36
	c-0.3,0.4-0.7,0.8-1.1,1.1c-4,2.6-7.4,2.5-10.3-0.5c-2.5-2.6-2.7-5.5-0.8-8.8c14.8-24.7,32.7-47.7,52.3-69.3
	c44.5-48.9,101.7-82.4,162.7-106.3c0.6-0.2,1.1-0.8,1.1-1.5c1.3-15,0.7-25.4-0.5-42.8c-0.4-5.7-1.2-12.8-2.5-21.2
	c-1.5-10.2-2.6-17.6-3.3-22c-0.1-0.5-0.5-0.8-1-0.7c0,0,0,0,0,0c-18.2,3.4-36.9,2.9-53.5-6c-5.6-3-11.2-6.8-16.7-11.3
	c-6.9-5.7-15.4-13.8-25.3-24c-10.4-10.8-21.4-23.8-33.1-39.1c-5.3-6.9-9.2-13.4-13.6-19.7c-2.6-3.7-4.4-6.4-5.3-8.1
	c-7-12.9-12.4-24.1-16.2-33.6c-2.1-5.4-4.9-14.6-8.4-27.7c-1.5-5.6-2.8-12.9-4-21.8c-0.8-6.2-2-13.6-3.5-21.9
	c-1.1-6.1-2.2-11-3.3-14.5c-1.8-5.8-3.2-12.3-5.6-19.1c-4.4-12.4-7.3-21.3-8.5-26.7c-6.6-27.5-8.4-55.3-5.4-83.1
	c0-0.2-0.1-0.3-0.3-0.3c-0.1,0-0.2,0-0.3,0.1c-6.9,8.9-10,18.8-9.5,29.8c0.2,4,1.7,7.7,2.5,11.2c1.3,6.3-6.6,8.3-10.5,4.8
	c-1.1-1-2.3-2.7-3.4-5.1c-2.9-6.1-4.1-12.4-3.5-19.1c0.6-6.1,1.8-12.3,4.2-17.7c5.5-12.2,13.6-22.6,24.4-31.3
	c6-4.9,11.8-8.8,17.3-11.8c9.4-5.1,17.9-10.1,25.3-15c3.3-2.2,7.7-5.9,13.1-11.1c14.5-14,23.1-30.9,25.8-50.8c0.2-1.6,1.9-3.1,3.6-4
	c2.3-1.1,4.6-0.9,7,0.6c1,0.7,2.2,2.6,3.7,5.9c3.5,8.1,8.5,15,15.1,20.8c5,4.4,10.4,8.6,16.9,11.9c11.7,5.9,24.4,9.8,37.9,11.6
	c8.6,1.1,15.2,1.7,19.9,1.7c15.2,0,24.4,0.1,27.5,0.1c10.6,0.2,21.7,1.5,33.3,3.9c8.1,1.7,13.1,4.2,22.6,9c3.8,1.9,7.1,4.2,10.1,6.7
	c7.9,6.8,13.2,12,16,15.5c5.5,7.1,9.1,11.5,10.6,13.2c9.7,10.8,21.1,19,33.9,24.4c9.4,4,19.3,6.1,29.8,6.4c5.5,0.2,9.6,0.1,12.2-0.3
	c12.4-1.6,23.7-4.9,33.9-10c13.9-7,23.5-11.6,28.7-13.7c8.7-3.6,17.9-5.8,27.5-6.7c22.6-2.1,48.8,8.5,55,32.5c0.9,3.3-0.4,6.6-4,7.6
	c-3.1,0.8-5.5-1.5-6.9-4.4c-8.8-17.8-32.2-23.1-50-19c-9.2,2.1-17.8,5.3-25.9,9.7c-12.4,6.7-24.5,12.3-33.7,15.6
	c-4.8,1.7-11.9,3.3-21.2,4.7c-6.3,0.9-13.9,0.4-20.3,0.3c-9.2-0.1-17.9-3-27.8-6c-0.3-0.1-0.7,0.1-0.8,0.4c0,0.1,0,0.2,0,0.3
	c2.9,11.8,13.3,23.3,24.5,29.1c12.4,6.4,25.4,8.3,39,5.8c5.8-1,13.9-4.2,21.7-7.7c7.6-3.4,15.4-5.4,23.5-6
	c13.2-0.9,27.2,3.9,34.6,15.3c3.8,5.9,6.3,12.1,7.3,18.6c0.9,5.7,1.3,10.8,1.1,15.2c-0.2,5.7-1.2,12.4-2.8,20.1
	c-1.1,5.3-3.1,10.9-5.8,16.7c-4.2,8.8-8.2,17-14.5,23.9c-3.8,4.1-6.1,6.6-7,7.5c-6.1,6.1-13.3,10.6-21.5,13.8
	c-0.4,0.2-0.6,0.6-0.4,1c0,0,0,0.1,0.1,0.1c4.8,7.3,5.2,14.4,1.2,21.3c-0.2,0.3-0.2,0.7,0,1c0.3,0.5,1.2,1.7,2.9,3.6
	c7.6,9.2,12.2,19.8,13.6,31.8c1.1,9.5-0.2,19.1-3.9,27.5c-4.9,11.3-15.7,20.4-28.5,20.8c-0.5,0-0.8,0.4-0.8,0.9c0,0,0,0,0,0.1
	c1.8,15.9,5.2,31.1,10.1,45.8c2.3,6.9,5.5,13.4,8.5,20.2c1,2.3,2.3,4.9,4.1,7.8c7.1,12,15.4,22.9,25,32.7c0.4,0.4,0.9,0.5,1.4,0.4
	c13.2-3.1,26.3-2.4,39.4,2.1c8.3,2.8,15.2,7.5,20.8,14c3.7,4.3,6,7.1,7.8,11.8c0.2,0.5,0.7,0.9,1.3,1c3.6,0.6,7.9,1.4,13,2.4
	c7,1.4,14.2,4.7,21.5,9.9c20.9,14.8,35.9,37.8,45.7,62.3c1,2.5,0,5.5-2.4,6.8l-0.2,0.1c-2.2,1.3-5.1,0.5-6.4-1.7c0,0,0-0.1-0.1-0.1
	c-8.4-15.8-18.4-30-29.8-42.6c-0.8-0.8-4.6-4.2-11.4-10c-3.8-3.3-7.6-5.7-11.2-7.2c-6.5-2.7-12-4.4-16.6-5.2
	c-0.4-0.1-0.8,0.2-0.9,0.6c0,0,0,0.1,0,0.1c-0.4,6.4-2,12.7-4.9,19.1c-0.1,0.3,0,0.7,0.3,0.8c0,0,0.1,0,0.1,0
	c16.8,3.3,31.4,10.8,43.9,22.6c8,7.5,14.5,15.8,19.7,24.9c1.1,1.9,1.6,3.6,1.7,5.1c0.2,5.8-5.7,9.3-10.7,6.7c-0.9-0.5-2.2-2.1-4-4.9
	c-7.3-11.8-15.8-21.3-25.5-28.4c-9.3-6.8-20.5-11.3-33.7-13.7c-0.4-0.1-0.8,0.1-1.1,0.4c-4.5,4.5-8.6,8.6-12.2,12.2
	c-10.6,10.8-19.6,22.7-27.1,35.9c-9.4,16.6-17.2,34.7-23.3,54.1c-4.7,15-8.5,29.2-11.4,42.5c-2.7,12.4-4.5,19.9-5.4,22.7
	c-2.5,7.4-12.8,7.7-13.7-1.3c-0.2-2.1-0.1-4.7,0.4-7.8c2.4-16,6.4-33.3,11.9-52c2.7-9.1,6.6-18.5,9.9-28.1c1-2.9,2.6-6.5,4.7-10.9
	c6.2-12.6,10.2-21.6,17.2-32.1c2.6-3.9,5.7-8.4,9.5-13.5c0.1-0.2,0.1-0.5-0.1-0.6c-0.1-0.1-0.2-0.1-0.4-0.1
	C845.3,949.9,833.6,950.1,822,947.8z M791.4,612c-4.2,0.5-7.1,4.4-6.6,8.7v0c0.5,4.4,4.3,7.5,8.4,7c0,0,0,0,0,0
	c4.2-0.5,7.1-4.4,6.6-8.7C799.3,614.7,795.6,611.5,791.4,612z M787.9,653.2c5.3,1.4,12.7,0,12.1-7.1c-0.5-6.8-9.6-9.9-13.6-3.8
	c-2.4,3.7-2.2,7.2,0.7,10.5C787.4,652.9,787.7,653.1,787.9,653.2z M786.5,664.3c-7.9,8.1-12.7,17.6-14.3,28.6
	c-1.1,7.8-0.2,16.6,2.9,23.7c3.3,7.4,9,11.7,17.2,12.8c7.9-1.1,13.6-5.4,17.2-13.1c2.9-6.3,4.1-12.6,3.5-18.8
	c-1.2-12.4-5.9-23.3-14.2-32.7c-0.5-0.6-1.3-0.9-2.1-0.9L786.5,664.3z M894.2,907.4c11-19.3-0.4-38.7-20.3-44.3
	c-5.7-1.6-11-2.5-15.8-2.8c-7-0.4-13.9,1.3-21.3,3.3c-2,0.6-3.6,1.4-4.6,2.4c-0.2,0.2-0.5,0.4-0.8,0.6c-8.3,4-15.8,9.3-22.3,15.9
	c-11.7,11.8-17,30.5-3.2,42.8c14.3,12.8,37.2,13.1,54.9,7.6C874,929,887.2,919.6,894.2,907.4z"/>
<path class="st5" d="M373.8,343.2c0.1,0.2,0,1.1-0.2,2.6c0,0.2-0.2,0.4-0.4,0.3c-0.2,0-0.3-0.2-0.3-0.3c-0.1-0.2,0.1-1.1,0.5-2.5
	c0-0.1,0.2-0.2,0.3-0.2C373.7,343.1,373.8,343.1,373.8,343.2z"/>
<path class="st4" d="M415.5,352.2c0.1,0.3-0.1,0.9-0.7,1.9c-6,9.1-15,17.5-24.9,22.3c-9.9,4.8-22.1,6.8-32.9,6
	c-1.1-0.1-1.8-0.3-1.9-0.6c-0.1-0.3,0.1-0.9,0.7-1.9c6-9,15-17.5,24.9-22.3c9.9-4.8,22.1-6.8,32.9-6
	C414.7,351.8,415.3,351.9,415.5,352.2z"/>
<path class="st4" d="M311.5,420.5c-0.4,0-0.7-0.2-0.9-0.5c-4.4-9.3-8.1-20.5-7.6-30.7c0.5-9.2,1.1-15.6,4.6-23.9
	c0.1-0.3,0.5-0.5,0.8-0.3c0.1,0,0.2,0.1,0.2,0.2c7.1,8.6,11.5,18.5,13,29.8c0.5,3.6,0.6,6.8,0.3,9.5c0,0.4-0.2,0.8-0.4,1.1
	c-3.3,4.6-6.4,9.3-9.3,14.3c0,0-0.1,0.1-0.4,0.3C311.8,420.4,311.7,420.5,311.5,420.5z"/>
<path class="st4" d="M771.4,388.8c13.3,4,25.6,12.3,34.4,23.1c0.3,0.4,0.2,0.9-0.1,1.2c-0.1,0.1-0.2,0.1-0.3,0.2
	c-14.4,4-28.2,4-41.3,0.1c-13.1-3.9-24.6-11.5-34.5-22.8c-0.3-0.3-0.3-0.9,0.1-1.2c0.1-0.1,0.2-0.1,0.3-0.2
	C743.3,385.1,758,384.8,771.4,388.8z"/>
<path class="st3" d="M650.1,468.7c3.4,4.1,2.3,9.9-3.4,11c-1.2,0.2-2.9,0-5.2-0.8c-8.8-3.1-18.4-5-28.8-5.9
	c-21.5-1.7-40.4,2.9-59.2,13.2c-3.8,2.1-9.8,7.9-14.9,8.2c-9.3,0.6-11.8-10-6.1-15.7c7.5-7.7,15.9-13.2,25.1-16.7
	c8.2-3.1,18.5-6,27.2-7.1c19.9-2.5,39,0.4,57.3,8.8C646.1,465.4,648.8,467.1,650.1,468.7z"/>
<path class="st3" d="M625.3,521.3c3.1,4.7,5,10.1,5.7,16.1c0.9,8.2-0.8,17.6-6.5,23.1c-8.5,8-21.1,6.1-27.3-3.6
	c-6.3-10-7.4-20.9-3-32.6c0.6-1.7,2.4-4.2,3.7-5.6c0.2-0.2,0.2-0.4,0-0.6c-0.1-0.1-0.2-0.1-0.4-0.1c-15.5,1.7-27.5,8.8-36,21.2
	c-2.3,3.3-7.3,2-8.2-1.8c-0.9-3.8,2.2-9.1,4.7-12.3c6.4-8.1,14.6-13.9,24.5-17.2c19.4-6.4,37.9-5,55.6,4.3c3.9,2,8.7,5.7,6.1,11
	c-1.3,2.6-5.1,3.1-7.1,2.2c-4.1-1.8-7.9-3.3-11.5-4.6c-0.2-0.1-0.4,0-0.5,0.2C625.3,521.1,625.3,521.2,625.3,521.3z"/>
<path class="st3" d="M523.5,642.8c8.2-0.6,8.8,9.2,2.3,11.9c-6.3,2.6-13.4,3.8-21.2,3.7c-5.6-0.1-10.5-1.9-14.9-5.4
	c-8.1-6.5-8.9-16.5-7.6-26.5c0.8-6.4,1.6-15.5,2.4-27.2c0.8-11,0.3-22.1-1.3-33.4c-1.4-9.1-4.4-17.9-9.1-26.2
	c-1.5-2.6,0.1-6.6,3.3-7.3c4.8-1.1,8,4,10.3,8c6.1,10.8,8.3,22.3,9.7,34.9c1.2,10.6,1.3,21.2,0.3,31.6c-0.9,9.8-1.5,16.3-1.9,19.5
	c-0.7,5.4-0.6,9.1,0.1,11.1C499.8,648,516,643.3,523.5,642.8z"/>
<path class="st3" d="M440.8,554.4c-11.8-0.1-24.4,8.3-28.8,19.3c-0.4,1.1-1.5,1.9-3.1,2.5c-3.7,1.3-6.7-0.9-6.8-4.7
	c-0.1-2,0.6-4.4,2-7.2c8.7-17.3,29.1-25.5,47.4-21.9c6.7,1.3,12.4,4.3,17.3,9.1c2.1,2.1,2.5,4.5,1.3,7.2c-0.2,0.4-0.2,1-0.1,1.4
	c1.3,4.5,2.1,7.2,2.2,8.1c1.9,10.2-0.7,24.8-12.7,27.5c-4.4,1-8.5,0.2-12.3-2.4c-6-4.1-8.4-9.5-10-16.8c-1.6-7.5-0.4-14.7,3.7-21.5
	c0.1-0.1,0-0.3-0.1-0.3C440.9,554.4,440.8,554.4,440.8,554.4z"/>
<ellipse transform="matrix(0.9936 -0.1132 0.1132 0.9936 -65.0805 93.6772)" class="st5" cx="792.3" cy="619.9" rx="7.6" ry="7.9"/>
<path class="st6" d="M787.9,653.2c-0.3-0.1-0.5-0.2-0.7-0.5c-2.9-3.3-3.1-6.8-0.7-10.5c4-6.1,13-3,13.6,3.8
	C800.6,653.2,793.2,654.6,787.9,653.2z"/>
<path class="st4" d="M792.2,729.4c-1.4-2.7-3.1-5.1-5.2-7.4c-0.3-0.3-0.5-0.6-0.7-1c-3.2-6.6-6.5-14.3-5.8-21.7
	c0.6-6.7,1.3-12.3,3.8-18.3c1.2-2.9,2.1-5.5,2.7-7.6c0.2-0.6,0.4-1.2,0.8-1.8l1.5-2.4c0.4-0.7,0.4-1.7,0-2.4
	c-0.5-0.9-1.5-1.7-2.8-2.5l10.1-0.4c0.8,0,1.6,0.3,2.1,0.9c8.3,9.4,13,20.3,14.2,32.7c0.6,6.3-0.6,12.6-3.5,18.8
	C805.8,724,800.1,728.4,792.2,729.4z"/>
<path class="st7" d="M786.5,664.3c1.3,0.8,2.2,1.6,2.8,2.5c0.5,0.7,0.5,1.6,0,2.4l-1.5,2.4c-0.3,0.5-0.6,1.1-0.8,1.8
	c-0.6,2.2-1.5,4.7-2.7,7.6c-2.5,6-3.1,11.6-3.8,18.3c-0.7,7.4,2.7,15.1,5.8,21.7c0.2,0.4,0.4,0.7,0.7,1c2.1,2.3,3.9,4.8,5.2,7.4
	c-8.1-1.1-13.9-5.4-17.2-12.8c-3.1-7.1-4.1-15.9-2.9-23.7C773.8,681.9,778.5,672.4,786.5,664.3z"/>
<path class="st3" d="M596.5,671.1c3.6,1.7,4.5,4.7,2.6,9.2c-0.6,1.4-2.6,3.4-6.1,6.1c-15.8,12.1-34.5,19.3-53.7,22.5
	c-6.1,1-13.2,1.3-21.3,0.8c-6.3-0.4-16.6-2.3-18.9-7.8c-1.4-3.2,0.2-6.4,3.7-7.2c1.4-0.3,3.6-0.2,6.3,0.5c3.8,0.8,8.4,1.1,13.8,0.9
	c11.8-0.5,23.1-2.7,34.1-6.7c13.4-4.8,24.4-10.6,33.2-17.5C591.5,671,594.7,670.3,596.5,671.1z"/>
<path class="st5" d="M593.4,865.1c-1.1-17.1-3.4-34.4-6.9-51.7c-0.1-0.5,0.2-1,0.7-1.2c12.1-3.7,23.9-8.5,35.4-14.6
	c3.3-1.7,8-4.7,14-8.8c5.1-3.5,8.7-6.5,10.7-8.8c2.2-2.5,2.8-5.2,2-8c-1-3.1-3.1-4.4-6.2-3.8c3.5-1.2,6.8-3.1,9.9-5.7
	c7.2-5.9,14.6-11.5,21.3-17c4.3-3.5,7.9-7.6,11.6-10.8c8-6.9,15.9-15,23.8-24.2c2.9-3.4,7.3-2.4,6.1,2.8c-0.6,2.4-1.7,5.3-3.3,8.9
	c-3.8,8.3-7,16.7-11.3,25.2c-4.3,8.7-6.8,13.5-7.3,14.5c-11.6,22.5-25.3,42.6-41.1,60.2c-3.3,3.7-6,6.5-8.3,8.4
	c-5.8,5.1-11.7,11.3-18.6,15.7c-4.5,2.8-8.7,6.4-13.9,9.2c-4.5,2.4-9.5,4.8-14.8,7C595.1,863.3,593.8,864.2,593.4,865.1z"/>
<path class="st6" d="M873.9,863.2c19.8,5.6,31.3,25,20.3,44.3c-7,12.2-20.2,21.5-33.4,25.7c-17.6,5.5-40.5,5.2-54.9-7.6
	c-13.8-12.4-8.5-31,3.2-42.8c6.5-6.6,14-11.9,22.3-15.9c0.3-0.1,0.6-0.3,0.8-0.6c1-1.1,2.6-1.9,4.6-2.4c7.4-2,14.3-3.7,21.3-3.3
	C863,860.6,868.2,861.5,873.9,863.2z M840.8,873.3c9.6-3.3,18.4-2.6,28.6-0.7c0.5,0.1,0.9-0.1,1.1-0.6c0.9-1.9,1.1-3.9-1-4.8
	c-4-1.6-7.4-2.7-10.4-3.3c-0.5-0.1-1-0.1-1.6-0.1c-5.9,0.2-11.8,1.3-17.8,3c-1.8,0.5-2.9,2.3-2.7,4.1l0,0.1c0.2,1.5,1.6,2.6,3.1,2.4
	C840.4,873.4,840.6,873.4,840.8,873.3z M883.8,877.4c-1.6-3.2-4.2-5.7-7.6-7.5c-0.6-0.3-1.4-0.1-1.7,0.6l-1,2
	c-0.3,0.6-0.1,1.3,0.5,1.6l8.8,4.5c0.4,0.2,0.9,0,1.1-0.4C883.9,877.9,883.9,877.7,883.8,877.4z M821.4,876.8
	c-0.5,0.7-0.3,1.6,0.4,2.1c0.1,0.1,0.2,0.1,0.3,0.2c3.8,1.4,7.7-1,11.6-3.4c0.4-0.2,0.6-0.5,0.8-0.9c0.5-1.4,0.2-2.8-1.1-4
	c-0.3-0.3-0.6-0.4-1-0.4C828.2,870.2,823.4,873.7,821.4,876.8z M850.7,891.2c5.2,0.6,9.4-5.2,9.5-9.7c0.1-2.8-1.2-5.4-2.3-8.2
	c-0.3-0.9-1.3-1.3-2.1-1c-0.1,0-0.2,0.1-0.3,0.2c-5,3.4-8.7,7-8.3,14.1C847.2,888.6,848.8,891,850.7,891.2z M824.6,890.5
	c2.8,4.9,7.2,7,13.3,6.2c2-0.2,3.5-1.6,4.7-4.2c0.2-0.6,0.2-1.2-0.1-1.7c-3.1-5.6-9.4-6.5-15.4-6.2c-0.4,0-0.7,0.1-1,0.3
	C823.8,886.4,823.3,888.3,824.6,890.5z M857.9,894.4c0,1.4,0.9,2.7,2.2,3.1c6.9,2.3,13.7-0.8,19-5.2c2-1.7,2.7-5.2-1.1-5.7
	c-6.6-0.8-12.7,0.8-18.3,4.8C858.5,892.2,857.9,893.2,857.9,894.4z M855,896.6c-0.9-2.7-4.4-3.9-7.9-2.8c0,0,0,0,0,0
	c-3.5,1.1-5.5,4.2-4.6,6.9c0,0,0,0,0,0c0.9,2.7,4.4,3.9,7.9,2.8c0,0,0,0,0,0C853.8,902.4,855.9,899.3,855,896.6
	C855,896.6,855,896.6,855,896.6z M839.1,902.7c-1.1-2.7-6.7-2.9-12.6-0.6c-5.9,2.4-9.9,6.4-8.8,9.1c1.1,2.7,6.7,2.9,12.6,0.6
	C836.2,909.5,840.2,905.4,839.1,902.7z M871.3,908c-2.3-3.3-5.6-5.3-9.8-6.2c-2.8-0.6-5,0.4-6.7,2.8c-0.2,0.3-0.3,0.7-0.3,1.1
	c0.2,7.1,6.2,9.3,12.5,9.2c3.6-0.1,5.2-1.8,4.8-5.1C871.8,909.1,871.6,908.5,871.3,908z M847.9,907.3c-2.9-1.4-7.1,1.2-9.4,5.9
	c0,0,0,0,0,0c-2.3,4.7-1.8,9.7,1.1,11.1c2.9,1.4,7.1-1.2,9.4-5.9c0,0,0,0,0,0C851.2,913.7,850.7,908.7,847.9,907.3z"/>
<path class="st7" d="M840.8,873.3c-1.5,0.5-3.1-0.3-3.6-1.7c-0.1-0.2-0.1-0.4-0.1-0.6l0-0.1c-0.2-1.8,0.9-3.6,2.7-4.1
	c6-1.8,11.9-2.8,17.8-3c0.5,0,1.1,0,1.6,0.1c3,0.6,6.4,1.7,10.4,3.3c2.1,0.9,2,2.9,1,4.8c-0.2,0.4-0.7,0.7-1.1,0.6
	C859.2,870.7,850.4,870,840.8,873.3z"/>
<path class="st7" d="M883.8,877.4c0.2,0.4,0,0.9-0.4,1.1c-0.2,0.1-0.5,0.1-0.8,0l-8.8-4.5c-0.6-0.3-0.8-1-0.5-1.6l1-2
	c0.3-0.6,1.1-0.9,1.7-0.6C879.6,871.7,882.2,874.2,883.8,877.4z"/>
<path class="st7" d="M821.4,876.8c2.1-3.1,6.8-6.6,11-6.5c0.4,0,0.7,0.1,1,0.4c1.3,1.3,1.6,2.6,1.1,4c-0.1,0.4-0.4,0.7-0.8,0.9
	c-3.9,2.3-7.8,4.8-11.6,3.4c-0.8-0.3-1.2-1.2-0.9-1.9C821.3,877,821.3,876.9,821.4,876.8z"/>
<path class="st5" d="M850.7,891.2c-1.9-0.2-3.5-2.6-3.6-4.5c-0.4-7.1,3.3-10.7,8.3-14.1c0.8-0.5,1.8-0.3,2.3,0.4
	c0.1,0.1,0.1,0.2,0.2,0.3c1,2.7,2.3,5.4,2.3,8.2C860,886,855.9,891.8,850.7,891.2z"/>
<path class="st5" d="M824.6,890.5c-1.3-2.2-0.8-4.1,1.5-5.6c0.3-0.2,0.6-0.3,1-0.3c6-0.3,12.4,0.7,15.4,6.2c0.3,0.5,0.3,1.2,0.1,1.7
	c-1.1,2.5-2.7,3.9-4.7,4.2C831.8,897.5,827.4,895.4,824.6,890.5z"/>
<path class="st5" d="M857.9,894.4c0-1.2,0.6-2.2,1.8-3c5.6-4,11.7-5.5,18.3-4.8c3.8,0.5,3.1,4,1.1,5.7c-5.2,4.4-12,7.5-19,5.2
	C858.8,897.1,857.9,895.8,857.9,894.4z"/>
<ellipse transform="matrix(0.9489 -0.3156 0.3156 0.9489 -240.289 313.842)" class="st5" cx="848.7" cy="898.7" rx="6.6" ry="5.1"/>
<ellipse transform="matrix(0.9291 -0.3697 0.3697 0.9291 -276.6541 370.5688)" class="st5" cx="828.4" cy="907" rx="11.5" ry="5.2"/>
<path class="st5" d="M871.3,908c0.3,0.5,0.5,1,0.6,1.8c0.3,3.4-1.3,5.1-4.8,5.1c-6.3,0.1-12.3-2.1-12.5-9.2c0-0.4,0.1-0.8,0.3-1.1
	c1.6-2.4,3.9-3.3,6.7-2.8C865.8,902.7,869,904.8,871.3,908z"/>
<ellipse transform="matrix(0.4399 -0.898 0.898 0.4399 -349.9124 1270.5742)" class="st5" cx="843.7" cy="915.8" rx="9.5" ry="5.8"/>
<path class="st5" d="M788.5,923.8c-0.9,0.6-2,1.3-3,2.1c-6,4.4-9.3,6.8-10,7.3c-3.8,2.6-7,5.1-9.7,7.6c-14.4,13-27.9,25.3-40.3,39.6
	c-9.2,10.6-13.1,14.6-22.5,25.9c-8.4,10-22,26.7-40.6,50c-9.3,11.6-20,23.6-32.1,35.9c-3.2,3.3-6.4,6.2-9.5,8.7
	c-6.3,5.1-9.7,7.7-10.1,8c-7.4,5.4-15.5,9.6-24.3,12.6c-2.8,1-5.4,1.5-7.9,1.7c-1.4,0.1-2.6-0.8-2.7-2.1c0-0.1,0-0.2,0-0.4
	c0.1-1.1,0.7-2.1,1.8-2.9c4.3-3.3,6.8-6.1,10.8-9c2.7-2,5.3-4.3,7.7-7.1c0.3-0.3,0.6-0.6,0.9-0.8c2.4-1.7,6.6-5,9.2-8
	c5.1-5.8,11.4-10.3,15.8-15.8c3.9-4.8,11.1-11.6,16.4-17.9c18.2-21.8,35.2-42,50.8-60.4c2.9-3.4,5.6-6.4,8.2-8.9
	c3.7-3.6,6.5-7.7,10.8-11.9c12.7-12.7,23-22.4,30.9-29.2c4.3-3.7,10-7.9,17.1-12.8c5.3-3.6,10.5-5.7,15.3-9.3
	c2.1-1.6,4.6-3.1,7.3-4.6c2.6-1.3,5.2-2.6,7.8-3.8L788.5,923.8z"/>
<path class="st5" d="M822,947.8c-5.4,5.7-10.5,11.6-15.2,17.6c-0.2,0.3-4,5.2-11.2,14.7c-3.6,4.7-7.1,9.7-10.7,15.1
	c-13.1,20-24.2,38.6-33.3,55.9c-9,17.1-16.5,30.8-22.3,41c-2,3.6-4.4,6.8-7.2,9.8c-2.7,2.9-6.7,1.8-6.4-2.8c0.1-1.2,0.8-4.3,2.1-9.2
	c0.1-0.3,1.4-4.2,4-11.7c1.3-3.7,2.7-7.5,4.4-11.6c6.5-15.7,14-31.1,22.3-46.3c3.1-5.7,5.6-10,7.6-13.1c3.9-6.1,6.4-11.6,10.5-17.2
	c0.5-0.7,5.8-8.3,15.8-22.8c3.3-4.8,7.1-8,10.2-12.5c1.5-2.3,3.6-4.6,6.3-7.1c2.3-2.1,4.6-4.2,7.1-6.4
	C810.7,944,816,946.1,822,947.8z"/>
<path class="st5" d="M508.8,954.1l-5.9,16.6c-0.1,0.3-0.2,0.7-0.2,1c-0.5,4-1.1,7.6-1.8,10.8c-1.9,8.7-0.6,17.4,2,26.1
	c1.7,5.7,8.7,12.8,14.9,14.4c4.2,1,8.4,2.3,12.6,3.8l-19.5,11.9c-8-1.6-14.3-5.5-18.7-11.8c-2.4-3.4-3.8-6-4.3-7.7
	c-1.2-4.4-2-8.3-2.6-11.5c-0.3-1.6-0.3-3.2-0.2-4.7c0.2-2.6,0.5-6.7,1-12.3c0.7-7.7,3.5-15.3,8.1-21.7c1.3-1.8,2.5-3.8,3.6-5.9
	c0.2-0.3,0.4-0.6,0.7-0.9c1.1-0.9,1.8-1.9,2.2-3L508.8,954.1z"/>
<path class="st5" d="M479.5,1057.1l-21.5,11.5c-0.6-0.6-1.5-0.9-2.8-1.1c-0.3,0-0.6-0.1-0.9-0.3c-8.8-4.9-15-12.6-15.8-23.1
	c-0.3-4.9,0.2-12.3,2.5-16.9c2-4.1,4-9.5,7.2-13.7c2.8-3.7,6.1-10.8,10.7-12.2c2.8-0.8,3.8,1.4,2.9,3.7c-1.5,3.6-4.4,8.3-5.5,13.4
	c-1.7,8.6-2.8,13.9-0.8,21.8c1.6,6.3,6,10.5,11.4,13.4c0.9,0.5,3,1,6.3,1.6C475.4,1055.7,477.5,1056.3,479.5,1057.1z"/>
</svg>
