<?xml version="1.0" encoding="utf-8"?>
<!-- Generator: Adobe Illustrator 28.0.0, SVG Export Plug-In . SVG Version: 6.00 Build 0)  -->
<svg version="1.1" id="Capa_1" xmlns="http://www.w3.org/2000/svg" xmlns:xlink="http://www.w3.org/1999/xlink" x="0px" y="0px"
	 viewBox="0 0 1254 1254" style="enable-background:new 0 0 1254 1254;" xml:space="preserve">
<style type="text/css">
	.st0{fill:#FFFFFF;}
	.st1{fill:#F7F7F3;}
	.st2{fill:#3E5B5D;}
	.st3{fill:#191919;}
	.st4{fill:#C2B2DB;}
	.st5{fill:#C4B9D2;}
	.st6{fill:#F6DCBC;}
	.st7{fill:#F7F6F6;}
</style>
<rect x="249.8" y="151.9" class="st1" width="768" height="939.6"/>
<path class="st2" d="M627.1,57.8c186.5,0,292.2,0,317.1-0.1c26.2-0.1,42.3,0.2,48.2,0.8c38.6,4,75.4,19,106.3,42.9
	c29.3,22.7,52,51.6,68,86.6c14.6,32.1,22.1,65,22.5,98.8c0.1,8.4,0.1,18.1,0.1,29.1c0,20,0,123.6,0,311.1s0,291.1,0,311.1
	c0,11,0,20.6-0.1,29.1c-0.4,33.8-7.9,66.7-22.5,98.8c-16,35-38.7,63.9-68,86.6c-30.9,23.9-67.7,38.9-106.3,42.9
	c-6,0.6-22.1,0.9-48.2,0.8c-24.9-0.1-130.6-0.1-317.1-0.1c-186.5,0-292.2,0-317.1,0.1c-26.2,0.1-42.3-0.2-48.2-0.8
	c-38.6-4.1-75.4-19-106.3-42.9c-29.3-22.7-52-51.6-68-86.6c-14.6-32.1-22.2-65-22.5-98.8c-0.1-8.4-0.1-18.1-0.1-29.1
	c0-20,0-123.6,0.1-311.1s0-291.1,0-311.1c0-11,0-20.6,0.1-29.1C65.3,253,72.8,220,87.4,188c16-35,38.7-63.9,68-86.6
	c30.9-23.9,67.7-38.9,106.3-42.9c6-0.6,22.1-0.9,48.2-0.8C334.8,57.7,440.6,57.8,627.1,57.8z M397.2,366c-0.1-0.2,0-1.8,0.2-5
	c0.5-9.4-1-18.6-4.4-27.7c-2.1-5.6-8-6.1-12.4-2.9c-15.5,11.6-25.5,26.8-30,45.7c-0.4,1.7-0.8,4.5-1.1,8.6c0,0.3-0.3,0.5-0.5,0.4
	c-0.1,0-0.2-0.1-0.3-0.2l-3.2-3.8c-0.3-0.4-0.5-0.8-0.5-1.3c-1-9.1-1.4-14.3-1.4-15.5c0.4-7,2.2-16.3,5.1-24.1
	c4.9-13,11.9-24.7,21-35.1c16.4-18.7,36.7-30.4,60.9-35.1c1.1-0.2,4.9-0.5,11.6-0.9c2.5-0.1,5.2-0.8,6.5-2.5
	c4.6-6.2,8.5-10.9,11.7-14.1c6.2-6.2,13.4-12.8,21-18.2c37.8-26.7,86-37.9,131.7-31.3c18.5,2.7,37.2,9.4,56.1,19.9
	c0.5,0.3,3.4,2.2,8.5,5.8c0.2,0.2,0.5,0.3,0.8,0.4c1.9,0.7,3.6,0.8,5.1,0.3c16.1-4.7,32-5.7,47.8-2.9c5.6,1,10.8,2.5,15.5,4.4
	c6.6,2.7,11.4,5.1,14.4,7.1c15.1,9.8,25.9,21.8,32.6,38.7c0.6,1.4,1.1,2.4,1.5,2.9c2.1,2.5,4.8,2.7,9.3,3.9
	c11.2,3,21.8,8.9,31.4,16.5c7.1,5.6,13.3,13.1,18.9,20.9c1.3,1.8,3.2,5.5,5.9,11.3c7.6,16.6,9.6,33.5,5.9,50.7
	c-0.9,4.2-1,8.4,2.7,10.5c13.1,7.4,22.5,17.9,28.2,31.6c2.7,6.4,4.1,12.7,4.2,18.8c0.2,9.4-1.4,19.6-5.9,28.4
	c-2.3,4.4-3.9,7.2-4.9,8.6c-2,2.8-3.1,4.5-3.3,5.3c-0.6,2.7-0.3,4.7,0.8,6c6.2,7.4,10.9,14.3,14.2,20.7c6.5,12.5,10.3,25.8,10,40.1
	c-0.3,17.3-5.9,33-16.8,47.1c-8.6,11.2-19.1,20.2-31.5,26.9c-0.3,0.1-0.5,0.3-0.7,0.5c-2.6,2.5-3.2,5.6-1.7,9.2
	c0.2,0.4,0.4,0.7,0.6,1c8.3,9,14.2,18.2,16.4,30c1.7,9.1,0.5,16.7-3.1,25.1c-0.8,1.9-2.6,4.8-5.5,8.7c-5.8,8-11,15.3-11.1,25.6
	c0,5.7,1.3,10.5,3.8,14.4c2.8,4.4,6,7.8,9.5,10.2c8,5.6,10.7,7.3,16.4,12.9c15.7,15.3,14.4,38.9-2.6,52.5c-0.2,0.2-0.4,0.4-0.5,0.6
	c-2.4,4.9,0.9,9.2,6.2,7.5c2.2-0.8,4.7-2.3,7.4-4.8c10.5-9.5,15.2-21.3,14.1-35.4c-1.4-18.7-12.5-31.9-27.5-42
	c-3.1-2.1-6.2-4.4-8-6.7c-8-10-1-18.1,5.1-26.2c0.7-0.9,2.3-3.5,4.8-7.8c5.2-8.9,7.5-20.1,6.7-29.9c-0.4-5.3-0.9-10.3-2.8-15.8
	c-2.6-7.7-6.1-14.5-10.7-20.4c-0.4-0.5-0.3-1.2,0.2-1.5c0,0,0,0,0,0c14-9.7,25.1-20.8,33.7-35.5c4.6-7.8,8.1-16.7,10.5-26.8
	c1-4.2,1.7-9.5,1.9-15.8c0.7-16.4-2.5-31.8-9.7-46.1c-3.7-7.5-8.4-14.8-13.8-21.7c-0.3-0.3-0.3-0.8,0-1.2c19.6-27,16-66.2-6.4-90.5
	c-4.8-5.2-9.8-9.6-14.9-13.1c-0.3-0.2-0.5-0.7-0.5-1.1c2.3-13.9,1.8-27.5-1.5-40.6c-3.3-13.1-9.3-25.2-18-36.5
	c-12.9-16.7-29.9-28.7-51-36c-1.4-0.5-3.3-0.7-4.8-1.5c-0.3-0.2-0.6-0.4-0.7-0.8c-3.4-8-7.1-14.6-11.2-19.6
	c-12.9-16.1-29.4-27.3-49.4-33.5c-12-3.7-24.4-5.1-37.3-4.2c-9.7,0.7-18,2-25,3.9c-0.4,0.1-0.9,0-1.2-0.2c-4-2.6-9.2-5.8-15.7-9.5
	c-3.1-1.8-10.4-4.8-21.9-9.1c-3.7-1.4-9.6-3-17.5-4.9c-6.3-1.5-12.3-2.5-18-3.1c-32.5-3.3-64.2,1.1-95.1,13.2
	c-28.2,11.1-55,28.3-73.9,53c-0.3,0.4-0.8,0.6-1.3,0.6c-3.8,0.1-7.6,0.5-11.5,1.2c-25.2,4.9-46.8,16.6-64.8,34.9
	c-12.7,12.9-22.1,27.8-28.3,44.5c-4.9,13.4-7.1,28.4-4.5,42c0.1,0.5,0,0.9-0.2,1.4c-9.1,17.9-10.7,36.3-4.8,55.1
	c1.9,6.1,4.9,11.4,8.2,17.3c0.3,0.6,0.4,1.2,0.1,1.8c-4.6,9.6-8.2,20.7-8.4,31.6c-0.1,5.1,0,8.5,0.2,10.3
	c1.5,10.3,4.8,19.4,10.2,27.3c3.6,5.3,7.2,10,10.9,14.1c8.1,9,14.1,15.5,18.4,23.7c4,7.7,6.1,16.7,4,25.4c-1.1,4.4-2,7.4-2.8,8.9
	c-7.9,14.5-13.3,27.9-9.3,44.7c3.1,13,12.5,23.2,23.1,30.2c2.4,1.6,5.1,3.7,8.1,6.4c7.8,6.9,12.4,17.2,10.2,27.7
	c-1.1,5.1-2.6,9.3-4.5,12.6c-0.8,1.4-3.1,4.8-6.7,10.2c-6.5,9.6-10.7,21.7-9.6,33.3c0.9,10.2,5.5,18.6,13.7,25.1
	c5.5,4.4,9.7,6.1,17,10.2c15.5,8.7,10.9,24.4,2.5,35.9c-0.4,0.6-0.6,1.6-0.5,3c0.2,3.1,3.9,3.8,6,2.2c7.5-5.9,11.7-13.8,12.8-23.7
	c0.4-4.1,0.2-7.6-0.8-10.5c-2.6-7.7-9.1-15-15.9-18.4c-4-2-7.3-4-10-6.1c-5.6-4.3-10.7-11.5-10.9-18.8c-0.2-6.9,1.4-13.4,4.7-19.2
	c3.7-6.6,10.3-14.2,13.5-21.6c2.9-6.6,5.6-16.4,4.3-24c-1.2-6.7-2.4-12.4-6.1-17.9c-6.5-9.7-14.9-16-24.2-22.9
	c-2.1-1.5-4.6-4.3-7.5-8.4c-6.1-8.5-6.8-19-3-28.6c1.2-3,3-7,5.4-11.8c2.7-5.4,4.3-9.4,4.9-12.1c1.5-7.1,2.4-13.7,0.9-21.5
	c-1-5.5-1.9-9.1-2.6-10.8c-4-9.8-9.9-17.7-18.4-27.7c-5.3-6.2-9.1-10.7-11.2-13.5c-10.8-14-13.7-31.1-8.3-48.1
	c1.6-5.1,2.7-8.2,3.3-9.4c1.1-2.2,2.9-5.8,5.5-10.7c1.3-2.4,3.4-5.8,6.3-10.3c5.8-8.8,11.1-16.4,15.8-22.8c0.3-0.4,0.8-0.7,1.3-0.6
	c4.8,0.4,9.6,0.5,14.5,0.2c18.9-0.9,34.7-8.3,47.1-22.2c4.4-4.9,11.6-13.8,10.7-19.8c-0.7-5.1-5.9-5.9-10.1-6.6
	c-0.3-0.1-0.6-0.4-0.5-0.7c0-0.2,0.1-0.3,0.3-0.4c6.2-3.9,11.7-8.6,16.4-14c1.4-1.6,2.4-3.6,3.7-5.2c0.4-0.4,0.8-0.8,1.3-1
	c18.5-9,36-15.3,52.4-18.8c11.1-2.4,22.6-3.9,34.6-4.5c0.2,0,0.4,0,0.5,0.1l13.7,4.3c0.2,0.1,0.3,0.3,0.2,0.5c0,0.1-0.1,0.2-0.2,0.2
	c-7.9,4.9-14.2,10.8-19,17.8c-2.2,3.2-2,6.3,0.7,9.3c0.3,0.3,0.6,0.5,0.9,0.7c9.3,4.6,17.3,7.3,24.1,8.2c29.9,3.9,54.2-5.5,73-28.2
	c0.2-0.2,0.5-0.3,0.8-0.2c10.6,3.2,21,7.1,31.3,11.6c0.2,0.1,0.2,0.3,0.2,0.4c-0.1,0.1-0.2,0.2-0.3,0.2c-13.6,0.7-26.2,4.7-37.8,12
	c-4.1,2.6-5.1,6.2-3,10.9c0.2,0.4,0.4,0.7,0.7,1c8.2,8.3,17.5,14.4,27.8,18.2c24.1,8.9,50.1,5.2,71.8-8.7c0.3-0.2,0.6-0.2,0.9,0
	c8.6,5.2,16.7,11,24.2,17.6c0.1,0.1,0.1,0.2,0,0.4c-0.1,0.1-0.1,0.1-0.2,0.1c-13.9-2.6-27.4-1.8-40.4,2.4c-5.5,1.7-9.2,2.6-9.3,8.7
	c0,3.2,2.9,6.9,4.8,9.3c7.6,9.4,16.8,16.5,27.6,21.3c12.8,5.7,27.2,7,41.3,5.4c3.6-0.4,9.1-1.7,16.6-3.8c10.3-2.9,21.8-6.2,32-6.3
	c9.5-0.1,21.4,2.8,28.3,9.9c2,2.1,3.2,2.7,5.9,2.1c3.9-0.8,4.2-5.7,2.3-8.4c-4.4-6.2-11.6-11.5-19.6-13.6
	c-9.6-2.5-19.5-2.9-29.7-1.2c-0.3,0-0.5-0.1-0.6-0.4c0-0.1,0-0.2,0-0.2c5.9-22,2.3-42.2-10.8-60.5c-3.6-5-7-9-10.4-12
	c-0.2-0.2-0.5-0.4-0.8-0.5c-3.5-1.6-6.3-1.1-8.6,1.3c-2.1,2.3-4.1,5.5-5.7,9.4c-4.7,11.1-6.5,22.5-5.3,34.4c0,0.3-0.2,0.6-0.5,0.6
	c-0.1,0-0.3,0-0.4-0.1l-8-7c-0.7-0.6-1-1.4-0.9-2.3c2.3-16.4,0.8-33.9-6.8-48.8c-9.4-18.3-25.8-31.9-45-39c-3.6-1.3-6.2-1.3-9,1
	c-1.1,0.9-1.9,3.1-2.3,6.6c-1.7,15,1.2,30.7,7.6,43.9c0,0.1,0,0.2-0.1,0.3c-0.1,0-0.1,0-0.2,0L688,340.9c-0.7-0.3-1.1-1-1.2-1.8
	c-0.6-7.2-2.3-14.8-5-22.7c-10.3-30.1-35.6-48.3-66.8-51.5c-4.9-0.5-9.3,1-9.6,6.1c-0.4,7.6,2.2,14.8,5,22.7
	c2.9,8.2,7.2,15.7,12.8,22.8c0.1,0.2,0.1,0.4-0.1,0.5c-0.1,0.1-0.2,0.1-0.4,0.1l-1.1-0.3c-0.3-0.1-0.6-0.3-0.8-0.7
	c-4.1-8.7-10-15.4-17.6-22.2c-4.9-4.4-10-7.9-15.4-10.3c-6.8-3.1-12.6-5-17.6-5.7c-17.5-2.6-34.6,0.5-51.3,9.3
	c-5.6,3-7,7.5-2.9,13.1c3.2,4.4,7.6,8.5,12,12.3c0.2,0.1,0.2,0.4,0,0.5c-0.1,0.1-0.1,0.1-0.2,0.1c-8.8,1.4-15,2.4-18.7,3.2
	c-14.4,3-28.4,7.5-42.1,13.4c-0.2,0.1-0.5,0-0.6-0.2c0-0.1,0-0.2,0-0.3c1.3-4.4,2.3-9.6,3-15.5c0.8-6.8-1-12.2-9.4-10.9
	c-14.8,2.3-27.3,8.2-38.3,17.6c-2.8,2.4-5.9,5.8-9.4,10.4c-6.5,8.5-11.2,18.3-13.3,28.6c-0.8,4.1-1.3,6.3-1.6,6.8
	c-0.1,0.1-0.2,0.2-0.3,0.1C397.3,366.1,397.2,366,397.2,366z M512.1,928.5c-0.4,1-1,1.9-2,2.7c-0.3,0.2-0.5,0.5-0.6,0.8
	c-1,1.9-2,3.7-3.2,5.4c-4.2,5.8-6.7,12.7-7.3,19.7c-0.4,5.1-0.7,8.8-0.9,11.2c-0.1,1.4,0,2.9,0.2,4.3c0.5,3,1.3,6.5,2.3,10.5
	c0.4,1.6,1.7,3.9,3.9,7c4,5.7,9.7,9.2,17,10.7l-28.4,16.7c-1.9-0.7-3.8-1.3-5.7-1.6c-3-0.6-4.9-1.1-5.7-1.5
	c-4.9-2.6-8.9-6.4-10.3-12.2c-1.8-7.1-0.9-12,0.7-19.8c1-4.7,3.7-9,5-12.2c0.9-2.1,0-4.1-2.6-3.4c-4.2,1.2-7.1,7.7-9.7,11
	c-2.9,3.8-4.7,8.7-6.5,12.4c-2.1,4.2-2.6,10.9-2.3,15.4c0.6,9.5,6.3,16.5,14.3,21c0.2,0.1,0.5,0.2,0.8,0.3c1.2,0.2,2,0.5,2.5,1
	c-11.7,6.2-23.9,11.3-36.4,15.2c-3.4,1-6.5,1.8-9.3,2.3c-2.5,0.5-5.1,1.8-4.1,4.7c2.5,7.1,34.4-3.1,40.1-5.1
	c7.1-2.5,16.5-7.1,23.1-10c7.5-3.4,19.6-9.9,36.3-19.5c13.1-7.6,31.9-19.1,56.3-34.5c12.4-7.8,26.3-16.5,37.9-24.1
	c25.9-16.8,51.3-32.6,76.2-47.3c23.6-13.9,46.8-26,69.6-36.1c2.3-1,5-2.1,8.2-3.2c0.2-0.1,0.4,0,0.5,0.2c0,0.1,0,0.2,0,0.2
	c-2,6.7-1.9,13.6,0,20.8c-2.4,1.1-4.8,2.3-7.1,3.5c-2.5,1.3-4.7,2.7-6.7,4.2c-4.3,3.3-9.1,5.2-13.9,8.5c-6.4,4.4-11.6,8.3-15.5,11.6
	c-7.2,6.1-16.6,15-28.1,26.5c-3.9,3.9-6.5,7.6-9.8,10.8c-2.3,2.3-4.8,5-7.4,8c-14.2,16.7-29.6,35-46.1,54.9
	c-4.8,5.7-11.3,11.9-14.9,16.2c-4.1,5-9.8,9.1-14.4,14.4c-2.4,2.7-6.2,5.7-8.4,7.2c-0.3,0.2-0.6,0.5-0.8,0.8c-2.2,2.5-4.5,4.6-7,6.4
	c-3.6,2.6-5.9,5.1-9.8,8.1c-1,0.8-1.5,1.6-1.6,2.6c-0.1,1.1,0.8,2.1,2.1,2.2c0.1,0,0.2,0,0.3,0c2.2-0.2,4.6-0.7,7.2-1.6
	c8-2.8,15.4-6.6,22.1-11.4c0.4-0.3,3.4-2.7,9.2-7.3c2.8-2.3,5.7-4.9,8.7-7.9c11-11.2,20.7-22,29.1-32.6c17-21.2,29.3-36.3,36.9-45.4
	c8.6-10.2,12.1-13.9,20.5-23.5c11.3-13,23.5-24.2,36.6-36c2.5-2.2,5.4-4.5,8.9-6.9c0.6-0.4,3.7-2.6,9.1-6.6c1-0.7,1.9-1.4,2.8-1.9
	c3.5,6.8,8.8,12.1,15.8,16c-2.2,1.9-4.4,3.8-6.4,5.8c-2.4,2.2-4.3,4.4-5.7,6.4c-2.8,4.1-6.2,7-9.2,11.3c-9.1,13.1-13.9,20-14.4,20.7
	c-3.8,5.1-6.1,10.1-9.6,15.6c-1.7,2.7-4,6.7-6.9,11.9c-7.6,13.8-14.3,27.9-20.2,42.1c-1.5,3.7-2.9,7.2-4,10.5
	c-2.4,6.8-3.6,10.4-3.7,10.7c-1.2,4.4-1.8,7.2-1.9,8.3c-0.2,4.1,3.4,5.2,5.8,2.6c2.5-2.7,4.6-5.7,6.5-8.9
	c5.3-9.3,12.1-21.7,20.3-37.2c8.3-15.7,18.4-32.6,30.2-50.8c3.2-4.9,6.4-9.5,9.7-13.7c6.6-8.6,10-13.1,10.2-13.4
	c4.2-5.5,8.8-10.8,13.8-16c10.5,2.1,21.2,2,32-0.3c0.2-0.1,0.4,0.1,0.5,0.3c0,0.1,0,0.2-0.1,0.3c-3.5,4.6-6.3,8.7-8.7,12.2
	c-6.3,9.6-10,17.7-15.6,29.2c-2,4-3.4,7.3-4.3,9.9c-3,8.7-6.5,17.2-9,25.5c-5.1,17-8.7,32.7-10.8,47.2c-0.4,2.9-0.6,5.3-0.4,7.1
	c0.8,8.2,10.1,7.9,12.4,1.2c0.8-2.5,2.5-9.4,4.9-20.6c2.6-12.1,6.1-25,10.3-38.6c5.5-17.7,12.6-34,21.1-49.1
	c6.8-12,15-22.9,24.6-32.6c3.3-3.4,7-7.1,11.1-11.1c0.3-0.3,0.7-0.4,1-0.3c12,2.2,22.2,6.3,30.6,12.5c8.8,6.4,16.5,15,23.1,25.8
	c1.6,2.6,2.8,4,3.6,4.5c4.5,2.4,9.8-0.8,9.7-6.1c0-1.4-0.5-2.9-1.5-4.7c-4.7-8.2-10.6-15.8-17.9-22.6
	c-11.3-10.7-24.6-17.6-39.9-20.5c-0.3-0.1-0.5-0.4-0.4-0.6c0,0,0-0.1,0-0.1c2.7-5.8,4.1-11.5,4.5-17.3c0-0.4,0.4-0.7,0.8-0.7
	c0,0,0,0,0.1,0c4.2,0.7,9.2,2.3,15.1,4.7c3.3,1.4,6.7,3.5,10.2,6.5c6.2,5.3,9.7,8.4,10.4,9.1c10.4,11.4,19.4,24.3,27.1,38.7
	c1.1,2.1,3.7,2.8,5.7,1.7c0,0,0.1,0,0.1-0.1l0.2-0.1c2.2-1.2,3.1-3.9,2.1-6.2c-8.9-22.2-22.5-43.1-41.5-56.6
	c-6.7-4.7-13.2-7.7-19.5-9c-4.6-0.9-8.5-1.7-11.8-2.2c-0.5-0.1-0.9-0.4-1.1-0.9c-1.7-4.2-3.8-6.8-7.1-10.7
	c-5.1-5.9-11.4-10.2-18.9-12.7c-11.8-4-23.8-4.7-35.8-1.9c-0.4,0.1-0.9,0-1.2-0.4c-8.7-8.9-16.3-18.8-22.7-29.7
	c-1.6-2.7-2.8-5-3.7-7.1c-2.7-6.2-5.7-12.1-7.8-18.4c-4.5-13.3-7.5-27.2-9.2-41.6c0-0.4,0.3-0.8,0.7-0.9c0,0,0,0,0.1,0
	c11.7-0.4,21.4-8.6,25.9-18.9c3.3-7.6,4.5-16.3,3.5-25c-1.3-10.9-5.4-20.5-12.3-28.8c-1.5-1.8-2.3-2.9-2.6-3.3
	c-0.2-0.3-0.2-0.6,0-0.9c3.6-6.3,3.3-12.8-1-19.4c-0.2-0.3-0.1-0.7,0.2-1c0,0,0.1,0,0.1-0.1c7.4-2.8,13.9-7,19.5-12.5
	c0.8-0.8,2.9-3.1,6.4-6.8c5.7-6.2,9.3-13.6,13.1-21.7c2.5-5.3,4.3-10.4,5.3-15.2c1.5-7,2.3-13.1,2.6-18.3c0.2-4-0.2-8.6-1-13.8
	c-1-6-3.2-11.6-6.6-16.9c-6.8-10.3-19.5-14.8-31.4-13.9c-7.3,0.5-14.4,2.3-21.3,5.4c-7.1,3.2-14.4,6-19.7,7
	c-12.4,2.2-24.2,0.5-35.4-5.3c-10.2-5.2-19.6-15.7-22.3-26.4c-0.1-0.3,0.1-0.6,0.4-0.7c0.1,0,0.2,0,0.3,0c9,2.8,16.8,5.4,25.2,5.5
	c5.8,0.1,12.7,0.6,18.4-0.2c8.5-1.3,14.9-2.7,19.3-4.3c8.4-3,19.3-8.1,30.6-14.1c7.3-4,15.2-6.9,23.5-8.8c16.2-3.7,37.4,1,45.4,17.2
	c1.3,2.6,3.4,4.8,6.3,4c3.3-0.9,4.4-3.9,3.6-6.9c-5.7-21.8-29.5-31.5-50-29.5c-8.7,0.8-17.1,2.9-25,6.1c-4.7,1.9-13.4,6.1-26,12.4
	c-9.2,4.6-19.5,7.7-30.7,9.1c-2.4,0.3-6.1,0.4-11.1,0.2c-9.5-0.3-18.6-2.2-27.1-5.8c-11.7-5-22-12.3-30.8-22.2
	c-1.4-1.6-4.6-5.6-9.7-12c-2.5-3.2-7.3-7.9-14.5-14.1c-2.7-2.3-5.7-4.3-9.1-6.1c-8.7-4.4-13.2-6.7-20.5-8.2
	c-10.5-2.2-20.6-3.3-30.2-3.5c-2.8,0-11.2-0.1-25-0.1c-4.2,0-10.2-0.5-18-1.6c-12.3-1.6-23.8-5.1-34.4-10.5
	c-5.9-3-10.8-6.8-15.4-10.8c-5.9-5.3-10.5-11.6-13.7-18.9c-1.3-3-2.4-4.7-3.3-5.3c-2.1-1.4-4.2-1.5-6.3-0.5
	c-1.5,0.7-3.1,2.1-3.3,3.6c-2.4,18-10.2,33.4-23.4,46.1c-4.9,4.7-8.9,8.1-11.9,10.1c-6.7,4.4-14.4,8.9-23,13.6
	c-5,2.7-10.3,6.3-15.7,10.7c-9.8,7.9-17.2,17.4-22.2,28.5c-2.2,4.9-3.3,10.5-3.8,16.1c-0.6,6.1,0.5,11.9,3.1,17.4
	c1,2.2,2.1,3.7,3.1,4.6c3.6,3.2,10.7,1.3,9.6-4.4c-0.6-3.1-2.1-6.5-2.2-10.1c-0.5-10,2.4-19,8.6-27.1c0.1-0.1,0.3-0.1,0.4,0
	c0.1,0.1,0.1,0.1,0.1,0.2c-2.7,25.3-1.1,50.5,4.9,75.5c1.2,4.9,3.8,13,7.8,24.2c2.2,6.2,3.5,12.1,5.1,17.3c1,3.3,2,7.7,3,13.2
	c1.4,7.6,2.5,14.3,3.2,19.9c1.1,8.1,2.3,14.7,3.6,19.8c3.1,11.9,5.7,20.3,7.6,25.1c3.4,8.6,8.3,18.8,14.7,30.5
	c0.8,1.5,2.4,4,4.8,7.4c4,5.8,7.6,11.7,12.4,17.9c10.6,13.9,20.7,25.7,30.1,35.5c9,9.3,16.6,16.6,22.9,21.8c5,4.1,10,7.5,15.1,10.2
	c15.1,8.1,32.1,8.5,48.6,5.4c0.4-0.1,0.9,0.2,0.9,0.6c0,0,0,0,0,0c0.6,4,1.6,10.7,3,20c1.1,7.7,1.9,14.1,2.3,19.2
	c1.1,15.8,1.7,25.2,0.5,38.9c-0.1,0.6-0.4,1.1-1,1.3c-55.5,21.7-107.3,52.1-147.8,96.5c-17.8,19.6-34.1,40.5-47.5,62.9
	c-1.8,3-1.6,5.7,0.7,8c2.6,2.7,5.8,2.8,9.4,0.4c0.4-0.3,0.7-0.6,1-1c5.4-8.4,13.2-19.3,23.4-32.7c12-15.7,24.9-30.2,38.5-43.5
	c13.9-13.5,29.9-26.3,47.9-38.4C508.4,930.5,510.2,929.5,512.1,928.5z"/>
</svg>
